<svg width="124" height="124" viewBox="0 0 124 124" fill="none" xmlns="http://www.w3.org/2000/svg">
<g filter="url(#filter0_d_1_18)">
<circle cx="62" cy="54" r="32" fill="white"/>
</g>
<path d="M70.6661 59.8771L64.7861 54L70.6661 48.123C70.8529 47.9423 71.002 47.7263 71.1046 47.4875C71.2076 47.248 71.2618 46.9904 71.2641 46.7298C71.2663 46.4691 71.2166 46.2107 71.1179 45.9694C71.0191 45.7282 70.8732 45.5091 70.6888 45.3248C70.5044 45.1405 70.2851 44.9948 70.0437 44.8961C69.8024 44.7975 69.5438 44.7478 69.283 44.7501C69.0222 44.7523 68.7645 44.8065 68.5249 44.9093C68.286 45.0119 68.0698 45.1608 67.889 45.3475L62.0062 51.224L56.1252 45.3475C55.9443 45.1608 55.7281 45.0119 55.4892 44.9093C55.2496 44.8065 54.9919 44.7523 54.7311 44.7501C54.4704 44.7478 54.2118 44.7975 53.9704 44.8961C53.729 44.9948 53.5098 45.1405 53.3253 45.3248C53.1409 45.5091 52.9951 45.7282 52.8963 45.9694C52.7975 46.2107 52.7478 46.4691 52.7501 46.7298C52.7523 46.9904 52.8065 47.248 52.9095 47.4875C53.0121 47.7262 53.1612 47.9423 53.3481 48.123L59.2288 53.9992L53.348 59.877C53.1612 60.0577 53.0121 60.2738 52.9095 60.5125C52.8065 60.752 52.7523 61.0096 52.7501 61.2702C52.7478 61.5309 52.7975 61.7893 52.8963 62.0306C52.9951 62.2718 53.1409 62.4909 53.3253 62.6752C53.5098 62.8595 53.729 63.0052 53.9704 63.1039C54.2118 63.2025 54.4704 63.2522 54.7311 63.2499C54.9919 63.2477 55.2496 63.1935 55.4892 63.0907C55.7281 62.9881 55.9443 62.8392 56.1252 62.6525L62.0062 56.776L67.889 62.6525C68.0698 62.8392 68.286 62.9881 68.5249 63.0907C68.7645 63.1935 69.0222 63.2477 69.283 63.2499C69.5438 63.2522 69.8024 63.2025 70.0437 63.1039C70.2851 63.0052 70.5044 62.8595 70.6888 62.6752C70.8732 62.4909 71.0191 62.2718 71.1179 62.0306C71.2166 61.7893 71.2663 61.5309 71.2641 61.2702C71.2618 61.0096 71.2076 60.752 71.1046 60.5125C71.002 60.2738 70.8529 60.0578 70.6661 59.8771Z" fill="#A29FBE" stroke="#A29FBE" stroke-width="0.5"/>
<defs>
<filter id="filter0_d_1_18" x="0" y="0" width="124" height="124" filterUnits="userSpaceOnUse" color-interpolation-filters="sRGB">
<feFlood flood-opacity="0" result="BackgroundImageFix"/>
<feColorMatrix in="SourceAlpha" type="matrix" values="0 0 0 0 0 0 0 0 0 0 0 0 0 0 0 0 0 0 127 0" result="hardAlpha"/>
<feOffset dy="8"/>
<feGaussianBlur stdDeviation="15"/>
<feColorMatrix type="matrix" values="0 0 0 0 0.0862745 0 0 0 0 0.0705882 0 0 0 0 0.239216 0 0 0 0.12 0"/>
<feBlend mode="normal" in2="BackgroundImageFix" result="effect1_dropShadow_1_18"/>
<feBlend mode="normal" in="SourceGraphic" in2="effect1_dropShadow_1_18" result="shape"/>
</filter>
</defs>
</svg>
