<svg width="93" height="20" viewBox="0 0 93 20" fill="none" xmlns="http://www.w3.org/2000/svg">
<path d="M4.22634 19V11.272H13.2703V7.772H4.22634V3.824H13.4663V0.323998H0.250344V19H4.22634ZM22.4344 19.336C26.9144 19.336 29.6024 16.088 29.6024 12.224C29.6024 8.388 26.9144 5.14 22.4344 5.14C17.9824 5.14 15.2944 8.388 15.2944 12.224C15.2944 16.088 17.9824 19.336 22.4344 19.336ZM22.4344 16.172C20.2224 16.172 18.9904 14.352 18.9904 12.224C18.9904 10.124 20.2224 8.304 22.4344 8.304C24.6464 8.304 25.9064 10.124 25.9064 12.224C25.9064 14.352 24.6464 16.172 22.4344 16.172ZM35.7966 19V10.068C36.3846 9.2 37.9526 8.528 39.1286 8.528C39.5206 8.528 39.8566 8.556 40.1086 8.612V5.14C38.4286 5.14 36.7486 6.12 35.7966 7.324V5.476H32.2406V19H35.7966ZM58.7625 19V11.356L65.9025 0.323998H61.3665L56.7745 7.828L52.1265 0.323998H47.5905L54.7865 11.356V19H58.7625ZM70.3407 19.336C74.8207 19.336 77.5087 16.088 77.5087 12.224C77.5087 8.388 74.8207 5.14 70.3407 5.14C65.8887 5.14 63.2007 8.388 63.2007 12.224C63.2007 16.088 65.8887 19.336 70.3407 19.336ZM70.3407 16.172C68.1287 16.172 66.8967 14.352 66.8967 12.224C66.8967 10.124 68.1287 8.304 70.3407 8.304C72.5527 8.304 73.8127 10.124 73.8127 12.224C73.8127 14.352 72.5527 16.172 70.3407 16.172ZM92.8308 19V5.476H89.2748V14.632C88.6588 15.416 87.5668 16.172 86.1948 16.172C84.6828 16.172 83.7028 15.556 83.7028 13.68V5.476H80.1468V15.08C80.1468 17.712 81.5468 19.336 84.5148 19.336C86.7268 19.336 88.3508 18.328 89.2748 17.292V19H92.8308Z" fill="#4E4B6F"/>
</svg>
