<svg width="116" height="116" viewBox="0 0 116 116" fill="none" xmlns="http://www.w3.org/2000/svg">
<g filter="url(#filter0_d_1_21)">
<circle cx="58" cy="50" r="28" fill="white"/>
</g>
<path d="M63.7112 58.9954C63.5596 58.996 63.4101 58.9602 63.2753 58.8912L58.4422 56.3629L53.6091 58.8912C53.4521 58.9737 53.2752 59.0105 53.0984 58.9974C52.9215 58.9844 52.7519 58.9221 52.6088 58.8175C52.4656 58.713 52.3547 58.5704 52.2886 58.406C52.2225 58.2415 52.204 58.0619 52.235 57.8875L53.1826 52.5563L49.2783 48.7686C49.1564 48.6472 49.07 48.4948 49.0283 48.328C48.9866 48.1612 48.9911 47.9862 49.0413 47.8217C49.0963 47.6534 49.1973 47.5039 49.333 47.3901C49.4687 47.2762 49.6336 47.2027 49.809 47.1778L55.2106 46.3919L57.5893 41.5342C57.6669 41.3741 57.788 41.2391 57.9389 41.1446C58.0897 41.0501 58.2641 41 58.4422 41C58.6202 41 58.7946 41.0501 58.9455 41.1446C59.0963 41.2391 59.2175 41.3741 59.2951 41.5342L61.7021 46.3824L67.1038 47.1683C67.2792 47.1932 67.4441 47.2668 67.5798 47.3806C67.7155 47.4944 67.8165 47.6439 67.8714 47.8122C67.9217 47.9767 67.9262 48.1517 67.8845 48.3186C67.8427 48.4854 67.7563 48.6377 67.6345 48.7592L63.7301 52.5468L64.6778 57.878C64.7116 58.0555 64.6939 58.239 64.6268 58.4068C64.5596 58.5746 64.4458 58.7197 64.2987 58.8249C64.1271 58.9451 63.9205 59.005 63.7112 58.9954V58.9954Z" fill="#4DD5FF"/>
<defs>
<filter id="filter0_d_1_21" x="0" y="0" width="116" height="116" filterUnits="userSpaceOnUse" color-interpolation-filters="sRGB">
<feFlood flood-opacity="0" result="BackgroundImageFix"/>
<feColorMatrix in="SourceAlpha" type="matrix" values="0 0 0 0 0 0 0 0 0 0 0 0 0 0 0 0 0 0 127 0" result="hardAlpha"/>
<feOffset dy="8"/>
<feGaussianBlur stdDeviation="15"/>
<feColorMatrix type="matrix" values="0 0 0 0 0.0862745 0 0 0 0 0.0705882 0 0 0 0 0.239216 0 0 0 0.12 0"/>
<feBlend mode="normal" in2="BackgroundImageFix" result="effect1_dropShadow_1_21"/>
<feBlend mode="normal" in="SourceGraphic" in2="effect1_dropShadow_1_21" result="shape"/>
</filter>
</defs>
</svg>
